<?xml version="1.0" encoding="UTF-8"?>
<svg width="120px" height="120px" viewBox="0 0 120 120" version="1.1" xmlns="http://www.w3.org/2000/svg" xmlns:xlink="http://www.w3.org/1999/xlink">

    <g id="fused_track_large" stroke="none" stroke-width="1" fill="none" fill-rule="evenodd">
        <path d="M66.4717,47.4995016 C66.4717,43.9096145 63.5620204,41 59.9726967,41 C56.3822315,41 53.4717,43.9097592 53.4717,47.4995016 C53.4717,51.0895066 56.3824942,54 59.9726967,54 C63.5617577,54 66.4717,51.0896514 66.4717,47.4995016 Z M70.4717,47.4995016 C70.4717,53.2986654 65.7710218,58 59.9726967,58 C54.1734477,58 49.4717,53.2987382 49.4717,47.4995016 C49.4717,41.7003826 54.17333,37 59.9726967,37 C65.7711394,37 70.4717,41.7004554 70.4717,47.4995016 Z" id="Stroke-4" fill="#000000" fill-rule="nonzero"></path>
        <path d="M95.2378825,68.7010037 C93.3634156,71.333584 90.5517152,75.2824544 86.8027813,80.5476149 L76.1488107,69.892647 L60.000048,93.4061902 L43.8522138,69.8925165 L37.2401266,76.504033 L34.6125147,73.4748081 L44.4259862,63.662053 L60.000152,86.3405098 L75.5753893,63.662053 L86.2874187,74.3750851 C88.7863904,70.865424 90.6606192,68.2331782 91.9101051,66.4783477 L95.2378825,68.7010037 Z" id="Stroke-6" fill="#000000" fill-rule="nonzero"></path>
        <path d="M35,78.5005701 C35,77.1198081 33.8801378,76 32.5,76 C31.1191942,76 30,77.119336 30,78.5005701 C30,79.8814299 31.11882,81 32.5,81 C33.8805121,81 35,79.880958 35,78.5005701 Z M39,78.5005701 C39,82.0904538 36.0892944,85 32.5,85 C28.909881,85 26,82.090769 26,78.5005701 C26,74.9103105 28.9099418,72 32.5,72 C36.0892335,72 39,74.9106259 39,78.5005701 Z" id="Stroke-10" fill="#000000" fill-rule="nonzero"></path>
        <path d="M98,63.5 C98,62.1193117 96.8809499,61 95.5010519,61 C94.1192308,61 93,62.119131 93,63.5 C93,64.880869 94.1192308,66 95.5010519,66 C96.8809499,66 98,64.8806883 98,63.5 Z M102,63.5 C102,67.089618 99.0902983,70 95.5010519,70 C91.9101716,70 89,67.0900879 89,63.5 C89,59.9099121 91.9101716,57 95.5010519,57 C99.0902983,57 102,59.910382 102,63.5 Z" id="Stroke-14" fill="#000000" fill-rule="nonzero"></path>
        <path d="M84.7172,48.85645 C84.7172,52.18645 83.3072,56.70645 80.5282,62.31645 L77.5182,59.36645 C80.0682,53.97645 80.7172,50.73645 80.7172,48.85645 C80.7172,37.42645 71.4282,28.12645 59.9972,28.12645 C48.5772,28.12645 39.2782,37.42645 39.2782,48.85645 C39.2782,50.72645 39.9172,53.95645 42.4782,59.35645 L39.4472,62.30645 C36.6482,56.67645 35.2782,52.24645 35.2782,48.85645 C35.2782,35.21545 46.3672,24.12645 59.9972,24.12645 C73.6272,24.12645 84.7172,35.21545 84.7172,48.85645" id="Fill-16" fill="#000000" fill-rule="nonzero"></path>
    </g>
</svg>