<?xml version="1.0" encoding="UTF-8"?>
<svg width="120px" height="120px" viewBox="0 0 120 120" version="1.1" xmlns="http://www.w3.org/2000/svg" xmlns:xlink="http://www.w3.org/1999/xlink">
    <!-- Generator: Sketch 61.2 (89653) - https://sketch.com -->
    <title>gps_navigation_large</title>
    <desc>Created with Sketch.</desc>
    <g id="gps_navigation_large" stroke="none" stroke-width="1" fill="none" fill-rule="evenodd">
        <path d="M59.9953147,0 C43.9715759,0 28.903639,6.24082462 17.5698892,17.5745744 C6.24082462,28.9083242 0,43.9762612 0,60 C0,76.0237388 6.24082462,91.0916758 17.5745744,102.425426 C28.9083242,113.759175 43.9715759,120 60,120 C76.0284241,120 91.0916758,113.759175 102.425426,102.425426 C113.759175,91.0916758 120,76.0284241 120,60 C120,43.9715759 113.759175,28.9083242 102.425426,17.5745744 C91.0869905,6.24550992 76.0190536,0 59.9953147,0 L59.9953147,0 L59.9953147,0 Z" id="bg" fill-rule="nonzero"></path>
        <g id="icon" transform="translate(37.000000, 21.000000)" fill="#000000">
            <path d="M29.62,59.616 L38.82,63.576 L23.001,73.415 L7.23,63.565 L16.55,59.725 C15.83,58.805 14.99,57.684 14.06,56.425 L14.06,56.425 L2.11,61.344 C1.421,61.625 0.941,62.274 0.881,63.025 L0.881,63.025 C0.82,63.775 1.18,64.495 1.81,64.885 L1.81,64.885 L21.941,77.464 C22.26,77.665 22.63,77.765 23.001,77.765 L23.001,77.765 C23.361,77.765 23.731,77.665 24.051,77.464 L24.051,77.464 L44.18,64.955 C44.81,64.565 45.171,63.855 45.12,63.105 L45.12,63.105 C45.061,62.365 44.601,61.714 43.91,61.425 L43.91,61.425 L32.091,56.325 C31.17,57.575 30.33,58.684 29.62,59.616 L29.62,59.616 Z" id="Fill-3"></path>
            <path d="M1.061,22.215 C1.061,27.185 4.531,35.015 11.371,45.486 L11.371,45.486 C16.361,53.115 21.421,59.475 21.471,59.544 L21.471,59.544 L23.041,61.495 L24.601,59.544 C24.65,59.475 29.711,53.115 34.701,45.486 L34.701,45.486 C41.551,35.015 45.02,27.185 45.02,22.215 L45.02,22.215 C45.02,10.095 35.161,0.235 23.041,0.235 L23.041,0.235 C10.921,0.235 1.061,10.095 1.061,22.215 L1.061,22.215 Z M5.061,22.215 C5.061,12.305 13.12,4.235 23.041,4.235 L23.041,4.235 C32.951,4.235 41.021,12.305 41.021,22.215 L41.021,22.215 C41.021,29.965 29.211,46.985 23.041,55.044 L23.041,55.044 C16.861,46.985 5.061,29.965 5.061,22.215 L5.061,22.215 Z" id="Fill-2"></path>
            <path d="M13.541,21.645 C13.541,26.884 17.801,31.145 23.041,31.145 L23.041,31.145 C28.281,31.145 32.541,26.884 32.541,21.645 L32.541,21.645 C32.541,16.405 28.281,12.145 23.041,12.145 L23.041,12.145 C17.801,12.145 13.541,16.405 13.541,21.645 L13.541,21.645 Z M17.541,21.645 C17.541,18.614 20.001,16.145 23.041,16.145 L23.041,16.145 C26.072,16.145 28.541,18.614 28.541,21.645 L28.541,21.645 C28.541,24.675 26.072,27.145 23.041,27.145 L23.041,27.145 C20.001,27.145 17.541,24.675 17.541,21.645 L17.541,21.645 Z" id="Fill-1"></path>
        </g>
    </g>
</svg>