<?xml version="1.0" encoding="UTF-8"?>
<svg width="120px" height="120px" viewBox="0 0 120 120" version="1.1" xmlns="http://www.w3.org/2000/svg" xmlns:xlink="http://www.w3.org/1999/xlink">
    <!-- Generator: Sketch 61.2 (89653) - https://sketch.com -->
    <title>tested_tough_large</title>
    <desc>Created with Sketch.</desc>
    <g id="tested_tough_large" stroke="none" stroke-width="1" fill="none" fill-rule="evenodd">
        <path d="M61.5349136,38.2917136 L58.7064864,35.4632864 L63.9264864,30.2432864 C64.707535,29.4622379 65.973865,29.4622379 66.7549136,30.2432864 L75.2399136,38.7282864 C76.0209621,39.509335 76.0209621,40.775665 75.2399136,41.5567136 L70.2699136,46.5267136 L67.4414864,43.6982864 L70.9972729,40.1425 L65.3407,34.4859271 L61.5349136,38.2917136 Z" id="Stroke-1" fill="#000000" fill-rule="nonzero"></path>
        <path d="M52.8786573,58.2604155 L55.7071427,61.0887845 L31.3991427,85.3977845 C30.6180988,86.1788605 29.3517464,86.1788735 28.5706864,85.3978136 L20.0856864,76.9128136 C19.3046493,76.1317765 19.3046362,74.8654692 20.085657,74.0844158 L44.143657,50.0254158 L46.972143,52.8537842 L24.3282977,75.4985706 L29.9848709,81.1551438 L52.8786573,58.2604155 Z" id="Stroke-3" fill="#000000" fill-rule="nonzero"></path>
        <path d="M81.9194864,76.8792136 C81.1384379,76.098165 81.1384379,74.831835 81.9194864,74.0507864 C82.700535,73.2697379 83.966865,73.2697379 84.7479136,74.0507864 L91.8189814,81.1218542 C92.60003,81.9029028 92.60003,83.1692328 91.8189814,83.9502814 C91.0379328,84.73133 89.7716028,84.73133 88.9905542,83.9502814 L81.9194864,76.8792136 Z" id="Stroke-6" fill="#000000" fill-rule="nonzero"></path>
        <path d="M87.9099,69 C86.8053305,69 85.9099,68.1045695 85.9099,67 C85.9099,65.8954305 86.8053305,65 87.9099,65 L97.9099,65 C99.0144695,65 99.9099,65.8954305 99.9099,67 C99.9099,68.1045695 99.0144695,69 97.9099,69 L87.9099,69 Z" id="Stroke-7" fill="#000000" fill-rule="nonzero"></path>
        <path d="M73,80 C73,78.8954305 73.8954305,78 75,78 C76.1045695,78 77,78.8954305 77,80 L77,89.9993967 C77,91.1039662 76.1045695,91.9993967 75,91.9993967 C73.8954305,91.9993967 73,91.1039662 73,89.9993967 L73,80 Z" id="Stroke-9" fill="#000000" fill-rule="nonzero"></path>
        <path d="M68.1691636,74.0832636 C67.3881283,74.8642435 66.1218793,74.8642458 65.3408414,74.0832685 L52.470755,61.2141821 L29.985755,38.7281821 C29.2047849,37.9471773 29.204743,36.680968 29.9856614,35.8999115 L35.6417864,30.2427864 L37.0557864,28.8287864 C37.4223003,28.4622726 37.9167916,28.2523656 38.4350413,28.2433056 L52.3350413,27.9999996 C52.8775288,27.9908218 53.4005899,28.2021493 53.7842383,28.5858112 L82.3112383,57.1138112 C83.0922831,57.8948833 83.0922496,59.1612327 82.3111636,59.9422636 L68.1691636,74.0832636 Z M78.0685477,58.5279252 L51.5560863,32.0145344 L39.3128563,32.2285708 L38.4703386,33.0710885 L34.2282707,37.3139064 L55.2991586,58.3857315 L66.7549951,69.8406778 L78.0685477,58.5279252 Z" id="Stroke-11" fill="#000000" fill-rule="nonzero"></path>
    </g>
</svg>